<mxfile host="app.diagrams.net" modified="2023-10-04T14:56:42.809Z" agent="Mozilla/5.0 (X11; Ubuntu; Linux x86_64; rv:109.0) Gecko/20100101 Firefox/118.0" etag="A5A_kzXKFejK7-Ve3oKx" version="22.0.2" type="device">
  <diagram name="Página-1" id="KngGqyF6lUVLKCFiVcuY">
    <mxGraphModel dx="880" dy="347" grid="1" gridSize="10" guides="1" tooltips="1" connect="1" arrows="1" fold="1" page="1" pageScale="1" pageWidth="827" pageHeight="1169" math="0" shadow="0">
      <root>
        <mxCell id="0" />
        <mxCell id="1" parent="0" />
        <mxCell id="P50vMO7CmPZW-aIichmH-1" value="&lt;p style=&quot;margin:0px;margin-top:4px;text-align:center;text-decoration:underline;&quot;&gt;&lt;b&gt;estudiante1:Student&lt;/b&gt;&lt;/p&gt;&lt;hr&gt;&lt;p style=&quot;margin:0px;margin-left:8px;&quot;&gt;nombre = Monica Geller&lt;br&gt;id = A00234&lt;br&gt;creditos =24&lt;/p&gt;" style="verticalAlign=top;align=left;overflow=fill;fontSize=12;fontFamily=Helvetica;html=1;whiteSpace=wrap;rounded=1;" parent="1" vertex="1">
          <mxGeometry x="510" y="120" width="160" height="90" as="geometry" />
        </mxCell>
        <mxCell id="P50vMO7CmPZW-aIichmH-2" value="&lt;p style=&quot;margin:0px;margin-top:4px;text-align:center;text-decoration:underline;&quot;&gt;&lt;b&gt;estudiante2:Student&lt;/b&gt;&lt;/p&gt;&lt;hr&gt;&lt;p style=&quot;margin:0px;margin-left:8px;&quot;&gt;nombre = Joe Tribiani&lt;br&gt;id = C2204&lt;br&gt;creditos =56&lt;/p&gt;" style="verticalAlign=top;align=left;overflow=fill;fontSize=12;fontFamily=Helvetica;html=1;whiteSpace=wrap;rounded=1;" parent="1" vertex="1">
          <mxGeometry x="510" y="250" width="160" height="90" as="geometry" />
        </mxCell>
        <mxCell id="P50vMO7CmPZW-aIichmH-3" value="&lt;p style=&quot;margin:0px;margin-top:4px;text-align:center;text-decoration:underline;&quot;&gt;&lt;b&gt;estudiante3:Student&lt;/b&gt;&lt;/p&gt;&lt;hr&gt;&lt;p style=&quot;margin:0px;margin-left:8px;&quot;&gt;nombre = Chandler Bing&lt;br&gt;id = A12003&lt;br&gt;creditos =6&lt;/p&gt;" style="verticalAlign=top;align=left;overflow=fill;fontSize=12;fontFamily=Helvetica;html=1;whiteSpace=wrap;rounded=1;" parent="1" vertex="1">
          <mxGeometry x="510" y="360" width="160" height="90" as="geometry" />
        </mxCell>
        <mxCell id="P50vMO7CmPZW-aIichmH-4" value="&lt;p style=&quot;margin:0px;margin-top:4px;text-align:center;text-decoration:underline;&quot;&gt;&lt;b&gt;estudiante4:Student&lt;/b&gt;&lt;/p&gt;&lt;hr&gt;&lt;p style=&quot;margin:0px;margin-left:8px;&quot;&gt;nombre = Rachel Green&lt;br&gt;id = B66003&lt;br&gt;creditos =12&lt;/p&gt;" style="verticalAlign=top;align=left;overflow=fill;fontSize=12;fontFamily=Helvetica;html=1;whiteSpace=wrap;rounded=1;" parent="1" vertex="1">
          <mxGeometry x="510" y="480" width="160" height="90" as="geometry" />
        </mxCell>
        <mxCell id="P50vMO7CmPZW-aIichmH-5" value="&lt;p style=&quot;margin:0px;margin-top:4px;text-align:center;text-decoration:underline;&quot;&gt;&lt;b&gt;clase1:LabClass&lt;/b&gt;&lt;/p&gt;&lt;hr&gt;&lt;p style=&quot;margin:0px;margin-left:8px;&quot;&gt;instructor: Eli&lt;/p&gt;&lt;p style=&quot;margin:0px;margin-left:8px;&quot;&gt;Horario:MIércoles,15h&lt;/p&gt;&lt;p style=&quot;margin:0px;margin-left:8px;&quot;&gt;Lugar:Aulario 2&lt;/p&gt;&lt;p style=&quot;margin:0px;margin-left:8px;&quot;&gt;students:&amp;lt;estudiante1,estudiante2&amp;gt;&lt;/p&gt;&lt;p style=&quot;margin:0px;margin-left:8px;&quot;&gt;capacity=2&lt;br&gt;&lt;/p&gt;" style="verticalAlign=top;align=left;overflow=fill;fontSize=12;fontFamily=Helvetica;html=1;whiteSpace=wrap;rounded=1;" parent="1" vertex="1">
          <mxGeometry x="140" y="210" width="180" height="130" as="geometry" />
        </mxCell>
        <mxCell id="P50vMO7CmPZW-aIichmH-6" value="&lt;p style=&quot;margin:0px;margin-top:4px;text-align:center;text-decoration:underline;&quot;&gt;&lt;b&gt;clase1:LabClass&lt;/b&gt;&lt;/p&gt;&lt;hr&gt;&lt;p style=&quot;margin:0px;margin-left:8px;&quot;&gt;instructor: Jose Antonio&lt;br&gt;&lt;/p&gt;&lt;p style=&quot;margin:0px;margin-left:8px;&quot;&gt;Horario:MIércoles,17h&lt;/p&gt;&lt;p style=&quot;margin:0px;margin-left:8px;&quot;&gt;Lugar:Aulario 2&lt;/p&gt;&lt;p style=&quot;margin:0px;margin-left:8px;&quot;&gt;students:&amp;lt;estudiante3,estudiante4&amp;gt;&lt;/p&gt;capacity=2&lt;p style=&quot;margin:0px;margin-left:8px;&quot;&gt;&lt;/p&gt;" style="verticalAlign=top;align=left;overflow=fill;fontSize=12;fontFamily=Helvetica;html=1;whiteSpace=wrap;rounded=1;" parent="1" vertex="1">
          <mxGeometry x="140" y="410" width="190" height="140" as="geometry" />
        </mxCell>
        <mxCell id="P50vMO7CmPZW-aIichmH-7" value="Use" style="endArrow=open;endSize=12;dashed=1;html=1;rounded=0;entryX=-0.019;entryY=0.633;entryDx=0;entryDy=0;entryPerimeter=0;" parent="1" target="P50vMO7CmPZW-aIichmH-1" edge="1">
          <mxGeometry width="160" relative="1" as="geometry">
            <mxPoint x="300" y="250" as="sourcePoint" />
            <mxPoint x="460" y="250" as="targetPoint" />
          </mxGeometry>
        </mxCell>
        <mxCell id="P50vMO7CmPZW-aIichmH-9" value="Use" style="endArrow=open;endSize=12;dashed=1;html=1;rounded=0;entryX=-0.037;entryY=0.489;entryDx=0;entryDy=0;entryPerimeter=0;exitX=1;exitY=0.5;exitDx=0;exitDy=0;" parent="1" source="P50vMO7CmPZW-aIichmH-5" target="P50vMO7CmPZW-aIichmH-2" edge="1">
          <mxGeometry width="160" relative="1" as="geometry">
            <mxPoint x="310" y="260" as="sourcePoint" />
            <mxPoint x="517" y="187" as="targetPoint" />
          </mxGeometry>
        </mxCell>
        <mxCell id="P50vMO7CmPZW-aIichmH-10" value="Use" style="endArrow=open;endSize=12;dashed=1;html=1;rounded=0;" parent="1" target="P50vMO7CmPZW-aIichmH-3" edge="1">
          <mxGeometry width="160" relative="1" as="geometry">
            <mxPoint x="300" y="441.5" as="sourcePoint" />
            <mxPoint x="507" y="368.5" as="targetPoint" />
          </mxGeometry>
        </mxCell>
        <mxCell id="P50vMO7CmPZW-aIichmH-11" value="Use" style="endArrow=open;endSize=12;dashed=1;html=1;rounded=0;entryX=0;entryY=0.25;entryDx=0;entryDy=0;" parent="1" target="P50vMO7CmPZW-aIichmH-4" edge="1">
          <mxGeometry width="160" relative="1" as="geometry">
            <mxPoint x="290" y="491.5" as="sourcePoint" />
            <mxPoint x="497" y="418.5" as="targetPoint" />
          </mxGeometry>
        </mxCell>
      </root>
    </mxGraphModel>
  </diagram>
</mxfile>
